<?xml version="1.0" encoding="utf-8"?>
<!-- Generator: Adobe Illustrator 25.1.0, SVG Export Plug-In . SVG Version: 6.00 Build 0)  -->
<svg version="1.1" id="s-0" xmlns="http://www.w3.org/2000/svg" xmlns:xlink="http://www.w3.org/1999/xlink" x="0px" y="0px"
	 viewBox="0 0 75.8 54" style="enable-background:new 0 0 75.8 54;" xml:space="preserve">
<style type="text/css">
	.st0{fill:#0078AE;}
	.st1{fill:#005835;}
	.st2{stroke:#0078AE;stroke-width:4;stroke-miterlimit:10;}
</style>
<g>
	<path class="st0" d="M9.5,36.9h56.8c0.4,0,0.8-0.4,0.8-0.8V2.8c0-1.6-1.3-2.8-2.8-2.8H11.6C10,0,8.7,1.3,8.7,2.8v33.3
		C8.7,36.5,9.1,36.9,9.5,36.9z M10.8,2.2h54.3V35H10.8C10.8,35,10.8,2.2,10.8,2.2z"/>
	<path d="M75.8,49.4C75.8,49.3,75.8,49.3,75.8,49.4c0-0.3-0.1-0.6-0.3-0.8c0,0-0.1-0.1-0.1-0.1l-8.5-9.7c-0.1-0.1-0.2-0.2-0.4-0.2
		c0-0.1-0.1-0.2-0.2-0.2h-9.7c-0.1,0-0.2,0.1-0.2,0.1c0,0.1,0,0.2,0,0.3l0.3,0.4H18.8l0.3-0.4c0.1-0.1,0.1-0.2,0-0.3
		s-0.1-0.1-0.2-0.1H9.5c-0.1,0-0.2,0.1-0.2,0.2c-0.1,0-0.3,0.1-0.4,0.2l-8.5,9.7c0,0-0.1,0.1-0.1,0.1c-0.2,0.3-0.3,0.7-0.3,1l0,2
		C0,52.6,1.9,54,3.2,54h69.3c1,0,2-0.7,2.6-1.3c0.4-0.4,0.6-0.9,0.6-1.3L75.8,49.4z M10.1,39.8c0.2-0.3,0.3-0.6,0.1-0.9h8.2
		l-0.3,0.4c-0.1,0.1-0.1,0.2,0,0.3c0,0.1,0.1,0.1,0.2,0.1h38.9c0.1,0,0.2-0.1,0.2-0.1c0-0.1,0-0.2,0-0.3l-0.3-0.4h8.5
		c-0.2,0.3-0.1,0.6,0.1,0.9l8.3,9.4c0,0.1-0.1,0.1-0.1,0.2c0,0.1,0,0.2-0.1,0.3c-0.2,0.2-0.7,0.4-1.3,0.4l-29.5,0h0
		c-0.1,0-0.1,0-0.2,0.1c-0.1,0.1-0.1,0.1-0.1,0.2c0,0.5-0.5,0.5-0.7,0.5h-8.3c-0.2,0-0.7,0-0.7-0.5c0-0.1,0-0.1-0.1-0.2
		c0,0-0.1-0.1-0.2-0.1l0,0l-29.6,0c-0.8,0-1.4-0.3-1.4-0.6c0-0.1-0.1-0.2-0.1-0.2L10.1,39.8z M72.5,52.4H3.2c-0.6,0-1.5-0.7-1.7-1
		l0-1.3c0.3,0.3,0.9,0.5,1.7,0.5l29.3,0c0.1,0.5,0.6,0.8,1.2,0.8h8.3c0.6,0,1.1-0.3,1.2-0.8l29.3,0c0.7,0,1.3-0.2,1.7-0.5l0,1.3
		C74,51.7,73.1,52.4,72.5,52.4z"/>
	<polygon points="58.1,41.7 17.3,41.7 14.2,45.8 61.3,45.8 	"/>
</g>
<g>
	<g>
		<g>
			<path class="st1" d="M31.1,16.6c0.5-1.7,1-3.3,1.6-4.7c0.2-0.3,0.3-0.7,0.5-1c0.2-0.3,0.3-0.6,0.5-0.9C33.8,9.6,34,9.3,34.2,9
				c0.2-0.3,0.4-0.6,0.6-0.8c0.4-0.5,0.8-1,1.2-1.4c0.4-0.4,0.8-0.8,1.2-1.1c0.8-0.6,1.4-1.2,2-1.5C40.3,3.5,40.9,3,40.9,3
				s-0.6,0.4-1.8,1.1c-0.6,0.4-1.2,0.9-2,1.5c-0.4,0.3-0.8,0.7-1.2,1.1c-0.4,0.4-0.8,0.9-1.2,1.3c-0.2,0.2-0.4,0.5-0.6,0.8
				c-0.2,0.3-0.4,0.6-0.6,0.9c-0.2,0.3-0.4,0.6-0.5,0.9c-0.2,0.3-0.3,0.7-0.5,1c-0.6,1.4-1.1,3-1.7,4.7c-0.5,1.4-0.8,2.4-1.7,3.8
				c0.1,0,0.2,0.1,0.3,0.1C30.3,19,30.6,18,31.1,16.6z"/>
		</g>
		<g>
			<path class="st1" d="M19.2,30.1c0.1,0.2,0,0.1,0,0.1l0,0c0,0,0,0,0,0c0,0,0,0.1,0,0.1c0,0.1-0.1,0.1-0.1,0.1
				c-0.1,0,0.1,0,0.2-0.1c0,0,0-0.1-0.1-0.1L19.2,30.1z"/>
		</g>
		<g>
			<path class="st1" d="M36.4,25.5c0.3,0.2,0.1,0.1,0.5,0.3c0-0.1,0.1-0.2,0.1-0.4c0-0.1,0.1-0.2,0.1-0.4c-0.3-0.2-0.1-0.1-0.4-0.2
				c-0.6-0.3-0.7-0.4-1.2-0.7c-0.1,0.2-0.3,0.4-0.4,0.6C35.7,25.1,35.8,25.2,36.4,25.5z"/>
		</g>
		<g>
			<path class="st1" d="M51.7,23.9c-2,2-4.6,3.4-7.3,3.4c-1.9,0-3.1-0.3-4.9-1c0,0.1-0.2,0.6-0.3,0.7c0.5,0.2,0.4,0.2,0.9,0.3
				c1.3,0.5,2.8,0.8,4.3,0.8c1.5,0,3-0.3,4.3-1c0.3-0.2,0.7-0.3,1-0.5l0.9-0.6l0.9-0.7c0.3-0.2,0.5-0.5,0.8-0.7
				c0.8-0.7,1.4-1.4,2-2.2c-0.3-0.2-0.5-0.4-0.8-0.6C53.1,22.5,52.4,23.2,51.7,23.9z"/>
		</g>
		<g>
			<path class="st1" d="M27.7,23c0.2-0.2,0.4-0.4,0.5-0.7c0.1-0.2,0.4-0.5,0.4-0.5l-0.3-0.1c0,0-0.2,0.3-0.4,0.5
				c-0.2,0.2-0.3,0.4-0.5,0.6c-0.3,0.4-0.7,0.8-1.1,1.1c-0.7,0.7-1.7,1.3-2.6,1.7c-1,0.4-2.1,0.5-3.2,0.5c-0.3,0-0.5,0-0.8-0.1
				l-0.8-0.2c-0.5-0.2-1-0.4-1.3-0.8c-0.3-0.4-0.3-1-0.1-1.5c0.2-0.5,0.7-0.9,1.1-1.2c1-0.7,2.1-1.1,3.3-1.3
				c0.6-0.1,1.2-0.2,1.8-0.2c0.6-0.1,1.2-0.1,1.9,0c1,0.1,1.9,0.3,2.9,0.7c0.1,0,0.2,0.1,0.3,0.1c0.2,0.1,0.4,0.1,0.5,0.2
				c1.2,0.5,2,0.9,3.2,1.6c0.1-0.2,0.2-0.4,0.4-0.6c-1.2-0.7-2-1.1-3.3-1.6c-0.1-0.1-0.3-0.1-0.4-0.2c-0.1,0-0.2-0.1-0.3-0.1
				c-1-0.4-2.1-0.7-3.2-0.7c-0.7-0.1-1.3,0-2,0c-0.6,0-1.3,0.2-1.9,0.3c-1.3,0.3-2.5,0.7-3.5,1.4c-0.5,0.4-1,0.8-1.3,1.4
				c-0.3,0.6-0.3,1.4,0.1,1.9c0.4,0.6,1,0.8,1.6,1l0.8,0.2c0.3,0.1,0.6,0.1,0.9,0.1c1.2,0,2.3-0.1,3.4-0.5c1-0.4,2-1,2.8-1.8
				C27,23.7,27.3,23.3,27.7,23z"/>
		</g>
	</g>
	<g>
		<path class="st1" d="M33.7,33.2c1.3-0.7,2.5-1.8,3.3-3c0.7-1.1,1.3-2.3,1.7-3.4c0.1-0.2,0.1-0.3,0.2-0.5c0-0.1,0-0.2,0.1-0.2
			c0.9-2.7,1.5-5.4,2.4-8c0.5-1.3,1.1-2.6,1.8-3.7c0.8-1.1,1.8-2.1,3-2.8c1.2-0.7,2.5-1.1,3.9-1.3c0.3-0.1,0.7-0.1,1-0.1
			c0.3,0,0.7-0.1,1-0.1c0.7,0,1.4,0.1,2,0.3c1.3,0.4,2.3,1.3,2.6,2.6c0.1,0.2,0.1,0.3,0.1,0.5c0,0.2,0.1,0.3,0,0.5c0,0.3,0,0.7,0,1
			c-0.1,0.7-0.3,1.3-0.5,2c-0.6,1.7-1.6,3.4-2.7,4.8c0.3,0.2,0.5,0.4,0.8,0.6c0.3-0.4,0.6-0.8,0.8-1.1c0.8-1.2,1.6-2.5,2.1-4
			c0.3-0.7,0.5-1.5,0.6-2.2c0.1-0.4,0.1-0.8,0.1-1.2c0-0.2,0-0.4-0.1-0.6c0-0.2-0.1-0.4-0.1-0.6c-0.2-0.8-0.6-1.6-1.2-2.2
			c-0.6-0.6-1.3-1-2.1-1.3c-0.8-0.3-1.5-0.4-2.3-0.4c-0.5,0-0.8,0-1.2,0.1c-0.4,0-0.8,0-1.1,0.1c-1.5,0.2-3,0.7-4.4,1.4
			c-1.4,0.8-2.5,1.9-3.4,3.1c-0.9,1.3-1.5,2.6-2.1,4c-1,2.6-1.6,5.3-2.5,7.8c0,0.1-0.1,0.2-0.1,0.4c0,0.1-0.1,0.2-0.1,0.4
			c-0.4,1.2-1,2.3-1.6,3.2c-0.7,1.1-1.7,1.9-2.8,2.5c-1.1,0.6-2.4,0.8-3.6,1l-0.9,0.1l-1,0l-0.5,0l-0.1,0c-0.1,0,0,0,0,0l-0.1,0
			l-0.2,0c-0.3,0-0.6-0.1-1-0.1c-1.3-0.2-2.5-0.4-3.7-0.7c-0.6-0.2-1.1-0.4-1.6-0.6c-0.1,0-0.1-0.1-0.2-0.1
			c-0.5-0.4-0.5-0.6-0.2-0.6c0.1,0,0.1,0,0.2,0c0.4,0,0.7,0,1.1,0.1c0.6,0.1,1.2,0.1,1.9,0.2c0.3,0,0.6,0,0.9,0c0.3,0,0.6,0,1,0
			c2.5-0.1,5-1.1,6.9-2.6c1.2-1,2.2-2.2,3-3.5c0.1-0.2,0.3-0.4,0.4-0.6c0.2-0.4,0.5-0.8,0.7-1.2c1-1.8,1.7-3.6,2.4-5.2
			c1.4-3.3,2.7-6,4.3-7.8c1.5-1.8,3.2-2.7,4.3-3.1c0.3-0.1,0.5-0.2,0.7-0.3c0.1,0,0.2,0,0.3-0.1l0.1,1.2l3.9-2.8l-4.4-2l0.1,1.2
			c-0.2,0-0.4,0.1-0.6,0.2c-0.3,0.1-0.6,0.2-1,0.3c-0.2,0.1-0.4,0.1-0.6,0.2C45.2,4.8,45,4.9,44.8,5c-0.4,0.2-0.9,0.5-1.3,0.8
			c-0.9,0.6-1.9,1.4-2.7,2.5c-1.8,2.1-3.2,5.1-4.5,8.4c-0.7,1.7-1.4,3.4-2.3,5.1c-0.2,0.4-0.4,0.8-0.6,1.1c-0.1,0.2-0.2,0.4-0.4,0.6
			c-0.7,1.1-1.5,2.1-2.5,3c-0.8,0.6-1.6,1.2-2.6,1.5l-0.4,0.1l-0.4,0.1c-0.3,0.1-0.5,0.1-0.8,0.2c-0.5,0.1-1.1,0.2-1.6,0.2l-0.8,0.1
			l-0.8,0c-0.6,0-1.1-0.1-1.8-0.1c-0.6,0-1.3-0.1-2,0c-0.4,0.1-0.8,0.1-1.4,0.5c-0.1,0.1-0.3,0.3-0.4,0.5c-0.1,0.2-0.1,0.4-0.1,0.6
			c0,0.1,0,0.2,0,0.3l0,0.1c0,0.1,0,0,0.1,0.2l0.1,0.2c0,0.1,0,0.1,0.1,0.2c0.1,0.1,0.1,0.2,0.2,0.3c0.2,0.2,0.3,0.4,0.5,0.5
			c0.2,0.2,0.3,0.3,0.5,0.4c0.2,0.1,0.3,0.2,0.5,0.3c0.6,0.4,1.3,0.6,2,0.8c1.3,0.4,2.7,0.6,4,0.7c0.3,0,0.7,0.1,1,0.1l0.3,0l0.2,0
			l0.1,0l0.5,0l1,0l1.1-0.1C30.9,34.2,32.4,33.9,33.7,33.2z"/>
	</g>
</g>
<line class="st2" x1="11.7" y1="35.5" x2="11.7" y2="1.4"/>
<line class="st2" x1="63.4" y1="35.9" x2="63.4" y2="1.8"/>
</svg>
