<svg id="s-0" xmlns="http://www.w3.org/2000/svg" viewBox="0 0 75.77 53.97"><defs><style>.cls-1{fill:#0078ae;}.cls-2{fill:#fff;}.cls-3{fill:#005835;}.cls-4{stroke:#0078ae;stroke-miterlimit:10;stroke-width:4px;}</style></defs><path class="cls-1" d="M9.52,36.89H66.33a.8.8,0,0,0,.79-.79V2.82A2.83,2.83,0,0,0,64.3,0H11.55A2.83,2.83,0,0,0,8.73,2.82V36.1A.8.8,0,0,0,9.52,36.89ZM10.77,2.2H65.08V35H10.77Z"/><path class="cls-2" d="M75.77,49.36V49.3a1.76,1.76,0,0,0-.26-.77,1,1,0,0,0-.08-.11l-8.54-9.7a.7.7,0,0,0-.36-.23.26.26,0,0,0-.23-.16H56.59a.25.25,0,0,0-.23.15.26.26,0,0,0,0,.28l.27.35H18.83l.27-.35a.26.26,0,0,0,0-.28.25.25,0,0,0-.23-.15H9.48a.27.27,0,0,0-.24.16.74.74,0,0,0-.36.23L.35,48.42a.44.44,0,0,0-.08.11,1.67,1.67,0,0,0-.27,1v2C0,52.57,1.88,54,3.24,54h69.3a4,4,0,0,0,2.64-1.3,1.78,1.78,0,0,0,.59-1.26Zm-65.7-9.6a.77.77,0,0,0,.1-.9h8.19l-.26.36a.26.26,0,0,0,0,.27.28.28,0,0,0,.24.15H57.17a.28.28,0,0,0,.24-.15.26.26,0,0,0,0-.27l-.26-.36h8.49a.79.79,0,0,0,.09.9L74,49.18a.31.31,0,0,0-.07.2.39.39,0,0,1-.12.32,1.76,1.76,0,0,1-1.27.38H43a.27.27,0,0,0-.26.26c0,.48-.52.52-.67.52H33.75c-.15,0-.67,0-.67-.52a.27.27,0,0,0-.26-.26H3.24c-.78,0-1.35-.25-1.39-.62a.27.27,0,0,0-.14-.2ZM72.54,52.39H3.24a2.75,2.75,0,0,1-1.66-1V50.06a2.25,2.25,0,0,0,1.65.55H32.59a1.09,1.09,0,0,0,1.16.78h8.33a1.1,1.1,0,0,0,1.17-.78H72.54a2.24,2.24,0,0,0,1.65-.54v1.3A2.61,2.61,0,0,1,72.54,52.39Z"/><polygon class="cls-2" points="58.15 41.69 17.27 41.69 14.18 45.8 61.31 45.81 58.15 41.69"/><path class="cls-3" d="M31.05,16.58c.55-1.71,1-3.32,1.59-4.73.16-.35.29-.71.47-1s.34-.64.51-1,.39-.58.57-.87a8,8,0,0,1,.57-.79c.43-.48.78-1,1.21-1.36l1.15-1.1c.79-.6,1.43-1.17,2-1.54l1.76-1.16L39.11,4.19c-.58.37-1.23.92-2,1.51L35.91,6.8c-.43.38-.79.87-1.23,1.34a9.63,9.63,0,0,0-.58.8c-.19.28-.42.55-.59.86l-.53.95c-.18.33-.32.68-.48,1-.63,1.42-1.1,3-1.66,4.73a15.78,15.78,0,0,1-1.7,3.84c.1,0,.17.08.26.11A16.33,16.33,0,0,0,31.05,16.58Z"/><path class="cls-3" d="M19.18,30.15c.07.21,0,.06,0,.11h0s0,0,0,0a.16.16,0,0,1,0,.14c0,.06-.06.1-.07.12s.06,0,.21-.06a.43.43,0,0,0-.05-.12Z"/><path class="cls-3" d="M36.39,25.52c.33.18.14.12.48.3,0-.13.1-.24.14-.37l.12-.36c-.3-.16-.08-.07-.38-.23l-1.21-.67c-.12.21-.25.41-.38.62C35.71,25.13,35.83,25.21,36.39,25.52Z"/><path class="cls-3" d="M51.73,23.88a10.72,10.72,0,0,1-7.28,3.39,10.43,10.43,0,0,1-4.87-1c0,.07-.2.57-.27.74a8.66,8.66,0,0,0,.89.35,12.4,12.4,0,0,0,4.26.81,9.9,9.9,0,0,0,4.3-1c.33-.17.67-.33,1-.52l.94-.61.89-.68c.29-.24.54-.48.82-.72a17.34,17.34,0,0,0,2-2.24l-.78-.64A18.94,18.94,0,0,1,51.73,23.88Z"/><path class="cls-3" d="M27.69,23a8.22,8.22,0,0,0,.52-.65c.13-.19.41-.54.41-.54l-.28-.13-.38.5a7.37,7.37,0,0,1-.5.61l-1.05,1.14a8.25,8.25,0,0,1-2.65,1.66,7.58,7.58,0,0,1-3.21.47c-.28,0-.55,0-.83-.09l-.85-.2a2.55,2.55,0,0,1-1.33-.83,1.41,1.41,0,0,1-.06-1.47,3.58,3.58,0,0,1,1.12-1.24,8.71,8.71,0,0,1,3.34-1.3,15.84,15.84,0,0,1,1.85-.24,9.84,9.84,0,0,1,1.88,0,11.25,11.25,0,0,1,2.86.69l.27.11.53.21a26.78,26.78,0,0,1,3.2,1.63q.19-.3.36-.6a27.32,27.32,0,0,0-3.3-1.63l-.44-.17-.27-.1A12.32,12.32,0,0,0,25.72,20a9.93,9.93,0,0,0-2,0,15.83,15.83,0,0,0-1.92.27,9.13,9.13,0,0,0-3.52,1.43A4,4,0,0,0,17,23.22a1.88,1.88,0,0,0,.13,1.94,2.93,2.93,0,0,0,1.61,1l.84.19a8.94,8.94,0,0,0,.89.09,8,8,0,0,0,3.38-.53,8.49,8.49,0,0,0,2.75-1.77C27,23.72,27.34,23.34,27.69,23Z"/><path class="cls-3" d="M33.69,33.17a9.43,9.43,0,0,0,3.33-3,15.45,15.45,0,0,0,1.74-3.44c.07-.17.13-.34.19-.51s0-.16.07-.23c.92-2.67,1.48-5.4,2.41-8a15.69,15.69,0,0,1,1.85-3.71,9.29,9.29,0,0,1,2.95-2.77,11.08,11.08,0,0,1,3.9-1.34,8.69,8.69,0,0,1,1-.13c.34,0,.74-.08,1-.07a6.33,6.33,0,0,1,2,.34,3.57,3.57,0,0,1,2.56,2.6,2.58,2.58,0,0,1,.1.48,3.57,3.57,0,0,1,0,.47,5.62,5.62,0,0,1,0,1,9.46,9.46,0,0,1-.47,2,18.22,18.22,0,0,1-2.7,4.83l.78.64q.44-.55.84-1.14a17.28,17.28,0,0,0,2.09-4A9.8,9.8,0,0,0,57.93,15,7.65,7.65,0,0,0,58,13.83a4.56,4.56,0,0,0-.05-.62,2.92,2.92,0,0,0-.12-.59,4.36,4.36,0,0,0-1.18-2.16A5.47,5.47,0,0,0,54.56,9.2a7.79,7.79,0,0,0-2.33-.43,8.66,8.66,0,0,0-1.17.07A8.49,8.49,0,0,0,49.93,9a12.15,12.15,0,0,0-4.35,1.45,10.46,10.46,0,0,0-3.41,3.1,17.55,17.55,0,0,0-2.07,4c-1,2.64-1.58,5.32-2.46,7.8l-.12.37c-.05.12-.1.24-.14.36a14.65,14.65,0,0,1-1.65,3.2,7.69,7.69,0,0,1-2.8,2.47,9.53,9.53,0,0,1-3.6,1l-.92.06-1,0-.51,0h-.12c-.05,0,0,0,0,0H26.7l-.25,0c-.31,0-.64-.06-1-.1a21.59,21.59,0,0,1-3.68-.71,8.35,8.35,0,0,1-1.6-.65c-.07,0-.13-.08-.19-.11-.53-.44-.49-.6-.21-.65H20a10.66,10.66,0,0,1,1.11,0c.57.06,1.22.14,1.86.15l.94,0,.95,0A11.54,11.54,0,0,0,31.74,28a14.41,14.41,0,0,0,3-3.47c.14-.21.27-.41.39-.62.24-.4.46-.8.68-1.2,1-1.83,1.7-3.61,2.41-5.24a30.15,30.15,0,0,1,4.29-7.76,10.31,10.31,0,0,1,4.29-3.08,7.37,7.37,0,0,1,.74-.26l.31-.08L48,7.52l3.92-2.84-4.42-2,.13,1.24-.64.16c-.25.07-.6.21-1,.34-.19.08-.39.14-.58.23l-.6.3a10.46,10.46,0,0,0-1.31.78,13.16,13.16,0,0,0-2.74,2.52,32.16,32.16,0,0,0-4.55,8.39c-.69,1.65-1.38,3.39-2.26,5.12q-.3.57-.63,1.14c-.12.2-.24.4-.37.6a12.65,12.65,0,0,1-2.49,3A8.87,8.87,0,0,1,27.86,28l-.36.14-.38.11c-.25.07-.5.15-.76.21a13.87,13.87,0,0,1-1.61.22l-.84.05-.84,0c-.58,0-1.13-.07-1.78-.13a10,10,0,0,0-2,0,2.48,2.48,0,0,0-1.36.54,1.79,1.79,0,0,0-.37.47,1.85,1.85,0,0,0-.13.6,2.46,2.46,0,0,0,0,.26l0,.12c0,.09,0,0,.06.23l.09.22a1.52,1.52,0,0,0,.11.23c.07.12.15.23.22.34a2.9,2.9,0,0,0,.47.5,2.56,2.56,0,0,0,.47.36,2.74,2.74,0,0,0,.49.29,9.16,9.16,0,0,0,2,.77,24,24,0,0,0,4,.74l1,.09h2.05l1.09-.08A11.09,11.09,0,0,0,33.69,33.17Z"/><line class="cls-4" x1="11.72" y1="35.49" x2="11.72" y2="1.36"/><line class="cls-4" x1="63.4" y1="35.94" x2="63.4" y2="1.81"/></svg>