<svg id="Livello_1" data-name="Livello 1" xmlns="http://www.w3.org/2000/svg" viewBox="0 0 560 288"><defs><style>.cls-1{fill:#0078ae;}.cls-2{fill:#008752;}.cls-3{fill:#fff;}.cls-4{fill:#005835;}.cls-5{stroke:#0078ae;stroke-miterlimit:10;stroke-width:4px;}</style></defs><path class="cls-1" d="M97.2,174.84V85.49l6.32-3h22.57q13.59,0,22,8.64,8,8.22,8,21.14t-8,21.15q-8.52,8.64-22,8.64h-17v27.4L97.8,174.84Zm11.92-43.48h17q7.82,0,13.88-6.14,4.29-4.35,4.29-12.93,0-8-4.29-12.92a17.46,17.46,0,0,0-13.88-6.14h-17Z"/><path class="cls-1" d="M171.07,174.84V129.57a23.22,23.22,0,0,1,7.39-17.1,23.85,23.85,0,0,1,17.33-6.73h8v.6l-4.76,10h-3.28a13.5,13.5,0,0,0-9.08,3.18q-3.72,3.19-3.73,10v39.91l-11.31,5.36Z"/><path class="cls-2" d="M362,172.46v-75h-8.66q-6.46,0-10.25,3.23t-3.78,11.41h-3.66V101.7a13.17,13.17,0,0,1,.85-4.7,7.37,7.37,0,0,1,3.11-3.66,12.24,12.24,0,0,1,6.41-1.4h57.34v5.49h-25.5v75Z"/><path class="cls-2" d="M464.85,172.83l-51.73-60.76v60.39H407V106.58a13.11,13.11,0,0,0-2.26-7.81Q402.51,95.6,396,95.6h-.61V91.94H404a29.31,29.31,0,0,1,11.28,1.83,17.32,17.32,0,0,1,7.14,5.49l42,48.8V91.94h6.1v80.89Z"/><path class="cls-1" d="M214.29,177.72H325.35a1.54,1.54,0,0,0,1.55-1.54V111.12a5.52,5.52,0,0,0-5.51-5.52H218.26a5.52,5.52,0,0,0-5.51,5.52v65A1.54,1.54,0,0,0,214.29,177.72Zm2.44-67.82H322.91V174H216.73Z"/><path class="cls-3" d="M343.82,202.1a.49.49,0,0,0,0-.12,3.38,3.38,0,0,0-.5-1.5,1.66,1.66,0,0,0-.16-.21l-16.69-19a1.56,1.56,0,0,0-.7-.45.51.51,0,0,0-.46-.3h-19a.51.51,0,0,0-.46.29.49.49,0,0,0,.05.53l.51.7H232.49l.52-.7a.49.49,0,0,0,.05-.53.51.51,0,0,0-.46-.29H214.2a.51.51,0,0,0-.46.3,1.56,1.56,0,0,0-.7.45l-16.69,19a1.66,1.66,0,0,0-.16.21,3.29,3.29,0,0,0-.51,2v3.88c.06,2.07,3.67,4.81,6.33,4.81H337.5a7.86,7.86,0,0,0,5.15-2.54,3.49,3.49,0,0,0,1.17-2.47ZM215.37,183.34a1.55,1.55,0,0,0,.19-1.76h16l-.51.7a.5.5,0,0,0-.05.54.52.52,0,0,0,.46.28h76a.53.53,0,0,0,.47-.28.55.55,0,0,0-.05-.54l-.52-.7h16.59a1.55,1.55,0,0,0,.2,1.76l16.21,18.43a.51.51,0,0,0-.13.38.75.75,0,0,1-.23.63,3.52,3.52,0,0,1-2.49.73H279.79a.55.55,0,0,0-.52.52c0,.94-1,1-1.31,1H261.67c-.31,0-1.32-.07-1.32-1a.48.48,0,0,0-.15-.36.52.52,0,0,0-.36-.16H202c-1.52,0-2.64-.49-2.72-1.2a.54.54,0,0,0-.26-.39ZM337.5,208H202a5.38,5.38,0,0,1-3.23-2v-2.59a4.43,4.43,0,0,0,3.23,1.06h57.38a2.16,2.16,0,0,0,2.29,1.52H278a2.15,2.15,0,0,0,2.28-1.52H337.5a4.44,4.44,0,0,0,3.23-1v2.55A5.12,5.12,0,0,1,337.5,208Z"/><polygon class="cls-3" points="309.36 187.12 229.45 187.12 223.39 195.16 315.54 195.16 309.36 187.12"/><path class="cls-4" d="M256.38,138c1.07-3.33,1.93-6.48,3.11-9.25.31-.68.57-1.38.91-2l1-1.86c.32-.61.75-1.13,1.11-1.69a15.39,15.39,0,0,1,1.12-1.55c.83-.93,1.53-1.9,2.35-2.65l2.27-2.16c1.54-1.18,2.78-2.28,3.91-3l3.43-2.27-3.46,2.23c-1.14.72-2.4,1.8-4,3l-2.3,2.14c-.83.75-1.55,1.71-2.4,2.63a16.76,16.76,0,0,0-1.14,1.55c-.37.56-.81,1.08-1.14,1.69l-1.05,1.86c-.35.64-.62,1.33-.94,2-1.23,2.78-2.14,5.93-3.24,9.23a30.22,30.22,0,0,1-3.32,7.51c.18.06.33.16.5.22A31.71,31.71,0,0,0,256.38,138Z"/><path class="cls-4" d="M233.17,164.55c.14.41.05.11.08.21v0s0,0,0,0a.38.38,0,0,1-.07.28c0,.1-.13.2-.15.22s.11,0,.42-.1l-.1-.25Z"/><path class="cls-4" d="M266.83,155.5c.63.35.27.24.92.57.1-.23.2-.46.28-.7s.16-.48.24-.72c-.59-.3-.17-.14-.74-.45-1.08-.58-1.3-.7-2.37-1.3-.24.4-.5.8-.75,1.2C265.48,154.74,265.72,154.89,266.83,155.5Z"/><path class="cls-4" d="M296.82,152.29c-3.93,3.84-8.91,6.63-14.24,6.62a20.28,20.28,0,0,1-9.52-2l-.52,1.45a13.24,13.24,0,0,0,1.73.68,24,24,0,0,0,8.32,1.58,19.24,19.24,0,0,0,8.42-1.94c.64-.34,1.3-.66,1.92-1l1.83-1.19,1.75-1.34c.55-.46,1.05-.93,1.59-1.4a34.31,34.31,0,0,0,4-4.37c-.5-.43-1-.85-1.51-1.26A37.08,37.08,0,0,1,296.82,152.29Z"/><path class="cls-4" d="M249.81,150.48a13.85,13.85,0,0,0,1-1.28c.27-.38.81-1,.81-1l-.55-.26s-.47.6-.75,1a11,11,0,0,1-1,1.19l-2.06,2.23a15.84,15.84,0,0,1-5.18,3.25,15.69,15.69,0,0,1-7.89.73l-1.66-.39a4.93,4.93,0,0,1-2.6-1.62,2.76,2.76,0,0,1-.13-2.87,7.07,7.07,0,0,1,2.21-2.42,16.91,16.91,0,0,1,6.53-2.55,29.91,29.91,0,0,1,3.61-.46,18.66,18.66,0,0,1,3.66,0,22.59,22.59,0,0,1,5.59,1.36l.54.21,1.05.41a55.65,55.65,0,0,1,6.24,3.19c.25-.38.48-.78.71-1.18a54.47,54.47,0,0,0-6.46-3.18c-.28-.12-.58-.22-.86-.33l-.53-.2a24.31,24.31,0,0,0-6.17-1.45,19.83,19.83,0,0,0-3.86.06,34.64,34.64,0,0,0-3.74.52,18,18,0,0,0-6.89,2.8A8.06,8.06,0,0,0,229,151a3.67,3.67,0,0,0,.25,3.79,5.74,5.74,0,0,0,3.14,1.93l1.66.38c.55.11,1.16.11,1.73.17a15.51,15.51,0,0,0,6.6-1,16.34,16.34,0,0,0,5.38-3.47C248.45,152,249.13,151.23,249.81,150.48Z"/><path class="cls-4" d="M261.54,170.45a18.3,18.3,0,0,0,6.51-5.88,29.76,29.76,0,0,0,3.4-6.73c.13-.34.26-.67.38-1,.05-.16.09-.3.14-.45,1.79-5.21,2.89-10.55,4.71-15.57a31.62,31.62,0,0,1,3.61-7.27,18.15,18.15,0,0,1,5.77-5.4,21.42,21.42,0,0,1,7.62-2.62,15.36,15.36,0,0,1,2-.25c.67,0,1.45-.17,2-.16a13.38,13.38,0,0,1,3.87.67,7,7,0,0,1,5,5.08,3.78,3.78,0,0,1,.19,1,8.31,8.31,0,0,1,.09.9,11.85,11.85,0,0,1-.08,2,18.39,18.39,0,0,1-.93,3.93,35.37,35.37,0,0,1-5.27,9.44c.5.41,1,.82,1.51,1.26.58-.74,1.13-1.48,1.66-2.24a35,35,0,0,0,4.09-7.76,19.92,19.92,0,0,0,1.09-4.38,14.52,14.52,0,0,0,.12-2.3,8.78,8.78,0,0,0-.11-1.23,5.77,5.77,0,0,0-.22-1.14,8.49,8.49,0,0,0-2.31-4.22,10.66,10.66,0,0,0-4.08-2.48,15.44,15.44,0,0,0-4.56-.84c-.88,0-1.5.09-2.28.13a20.29,20.29,0,0,0-2.2.25,24,24,0,0,0-8.52,2.83,20.72,20.72,0,0,0-6.66,6.07,33.84,33.84,0,0,0-4,7.83c-1.93,5.17-3.09,10.41-4.81,15.26l-.24.71c-.09.24-.19.47-.28.71a28.08,28.08,0,0,1-3.22,6.27,15.2,15.2,0,0,1-5.47,4.82,18.58,18.58,0,0,1-7,1.87l-1.81.12-2-.05-1,0h-.41l-.47,0c-.63,0-1.26-.12-1.88-.19a42.21,42.21,0,0,1-7.21-1.41,15.5,15.5,0,0,1-3.13-1.26,3.79,3.79,0,0,1-.36-.22c-1-.84-1-1.17-.41-1.27.13,0,.26,0,.4,0a20.58,20.58,0,0,1,2.18.1c1.11.12,2.39.28,3.63.3l1.84.07,1.86-.09a22.52,22.52,0,0,0,13.41-5.1,28.42,28.42,0,0,0,5.83-6.78c.26-.4.51-.8.76-1.21.47-.79.91-1.57,1.33-2.34,1.88-3.59,3.31-7.06,4.71-10.25,2.7-6.39,5.35-11.68,8.39-15.17a20.12,20.12,0,0,1,8.38-6c.56-.19,1-.39,1.46-.51l.59-.15.24,2.33,7.67-5.55-8.64-3.86.25,2.42-1.24.32c-.5.12-1.19.41-1.89.67-.36.14-.76.26-1.14.44l-1.16.59a18.06,18.06,0,0,0-2.56,1.52,25.22,25.22,0,0,0-5.36,4.93c-3.51,4.15-6.24,9.94-8.89,16.4-1.35,3.23-2.71,6.64-4.44,10-.39.75-.8,1.49-1.23,2.23-.23.4-.47.79-.71,1.18a24.79,24.79,0,0,1-4.87,5.8,17.12,17.12,0,0,1-5.06,3l-.71.29-.74.2c-.49.14-1,.29-1.49.41a24.88,24.88,0,0,1-3.15.43l-1.63.1-1.66,0c-1.12,0-2.2-.12-3.47-.24a20.61,20.61,0,0,0-4,0,4.91,4.91,0,0,0-2.65,1,3.83,3.83,0,0,0-.72.93,3.88,3.88,0,0,0-.27,1.18,4.07,4.07,0,0,0,.05.49l0,.25a1.52,1.52,0,0,0,.12.45l.18.42a3.58,3.58,0,0,0,.22.47c.14.22.28.43.44.64a5,5,0,0,0,.91,1,6.49,6.49,0,0,0,.92.71,8,8,0,0,0,.95.57,18.83,18.83,0,0,0,3.84,1.5,44.75,44.75,0,0,0,7.83,1.44c.67.07,1.33.12,2,.17l.5,0h.56l1,0,2,0,2.13-.15A22.12,22.12,0,0,0,261.54,170.45Z"/><line class="cls-5" x1="218.59" y1="174.99" x2="218.59" y2="108.26"/><line class="cls-5" x1="321.64" y1="175.86" x2="321.64" y2="109.14"/></svg>