<?xml version="1.0" encoding="UTF-8" standalone="no"?>
<svg
   id="Livello_1"
   data-name="Livello 1"
   viewBox="0 0 400 175"
   version="1.1"
   sodipodi:docname="logo_scritta.svg"
   width="400"
   height="175"
   inkscape:version="1.2.2 (732a01da63, 2022-12-09, custom)"
   xmlns:inkscape="http://www.inkscape.org/namespaces/inkscape"
   xmlns:sodipodi="http://sodipodi.sourceforge.net/DTD/sodipodi-0.dtd"
   xmlns="http://www.w3.org/2000/svg"
   xmlns:svg="http://www.w3.org/2000/svg">
  <sodipodi:namedview
     id="namedview1100"
     pagecolor="#505050"
     bordercolor="#eeeeee"
     borderopacity="1"
     inkscape:showpageshadow="0"
     inkscape:pageopacity="0"
     inkscape:pagecheckerboard="0"
     inkscape:deskcolor="#505050"
     showgrid="false"
     inkscape:zoom="2.4517857"
     inkscape:cx="182.9279"
     inkscape:cy="61.587764"
     inkscape:window-width="1858"
     inkscape:window-height="1043"
     inkscape:window-x="0"
     inkscape:window-y="0"
     inkscape:window-maximized="1"
     inkscape:current-layer="Livello_1" />
  <defs
     id="defs1067">
    <style
       id="style1065">.cls-1{fill:#0078ae;}.cls-2{fill:#008752;}.cls-3{fill:#005835;}.cls-4{stroke:#0078ae;stroke-miterlimit:10;stroke-width:4px;}</style>
  </defs>
  <path
     class="cls-1"
     d="M 14.928532,116.53359 V 27.183585 l 6.32,-3 h 22.57 q 13.59,0 22,8.64 8,8.22 8,21.14 0,12.92 -8,21.15 -8.52,8.64 -22,8.64 h -17 v 27.400005 l -11.29,5.38 z m 11.92,-43.480005 h 17 q 7.82,0 13.88,-6.14 4.29,-4.35 4.29,-12.93 0,-8 -4.29,-12.92 a 17.46,17.46 0 0 0 -13.88,-6.14 h -17 z"
     id="path1069" />
  <path
     class="cls-1"
     d="M 88.798532,116.53359 V 71.263585 a 23.22,23.22 0 0 1 7.39,-17.1 23.85,23.85 0 0 1 17.329998,-6.73 h 8 v 0.6 l -4.76,10 h -3.28 a 13.5,13.5 0 0 0 -9.08,3.18 q -3.72,3.19 -3.73,10 v 39.910005 l -11.309998,5.36 z"
     id="path1071" />
  <path
     class="cls-2"
     d="M 279.72853,114.15359 V 39.153585 h -8.66 q -6.46,0 -10.25,3.23 -3.79,3.23 -3.78,11.41 h -3.66 v -10.4 a 13.17,13.17 0 0 1 0.85,-4.7 7.37,7.37 0 0 1 3.11,-3.66 12.24,12.24 0 0 1 6.41,-1.4 h 57.34 v 5.49 h -25.5 v 75.000005 z"
     id="path1073" />
  <path
     class="cls-2"
     d="m 382.57853,114.52359 -51.73,-60.760005 v 60.390005 h -6.12 V 48.273585 a 13.11,13.11 0 0 0 -2.26,-7.81 q -2.23,-3.17 -8.74,-3.17 h -0.61 v -3.66 h 8.61 a 29.31,29.31 0 0 1 11.28,1.83 17.32,17.32 0 0 1 7.14,5.49 l 42,48.8 v -56.12 h 6.1 v 80.890005 z"
     id="path1075" />
  <path
     class="cls-1"
     d="m 132.01853,119.41359 h 111.06 a 1.54,1.54 0 0 0 1.55,-1.54 V 52.813585 a 5.52,5.52 0 0 0 -5.51,-5.52 h -103.13 a 5.52,5.52 0 0 0 -5.51,5.52 v 65.000005 a 1.54,1.54 0 0 0 1.54,1.6 z m 2.44,-67.820005 h 106.18 v 64.100005 h -106.18 z"
     id="path1077" />
  <path
     d="m 261.54853,143.79359 a 0.49,0.49 0 0 0 0,-0.12 3.38,3.38 0 0 0 -0.5,-1.5 1.66,1.66 0 0 0 -0.16,-0.21 l -16.69,-19 a 1.56,1.56 0 0 0 -0.7,-0.45 0.51,0.51 0 0 0 -0.46,-0.3 h -19 a 0.51,0.51 0 0 0 -0.46,0.29 0.49,0.49 0 0 0 0.05,0.53 l 0.51,0.7 h -73.92 l 0.52,-0.7 a 0.49,0.49 0 0 0 0.05,-0.53 0.51,0.51 0 0 0 -0.46,-0.29 h -18.4 a 0.51,0.51 0 0 0 -0.46,0.3 1.56,1.56 0 0 0 -0.7,0.45 l -16.69,19 a 1.66,1.66 0 0 0 -0.16,0.21 3.29,3.29 0 0 0 -0.51,2 v 3.88 c 0.06,2.07 3.67,4.81 6.33,4.81 h 135.49 a 7.86,7.86 0 0 0 5.15,-2.54 3.49,3.49 0 0 0 1.17,-2.47 z m -128.45,-18.76 a 1.55,1.55 0 0 0 0.19,-1.76 h 16 l -0.51,0.7 a 0.5,0.5 0 0 0 -0.05,0.54 0.52,0.52 0 0 0 0.46,0.28 h 76 a 0.53,0.53 0 0 0 0.47,-0.28 0.55,0.55 0 0 0 -0.05,-0.54 l -0.52,-0.7 h 16.59 a 1.55,1.55 0 0 0 0.2,1.76 l 16.21,18.43 a 0.51,0.51 0 0 0 -0.13,0.38 0.75,0.75 0 0 1 -0.23,0.63 3.52,3.52 0 0 1 -2.49,0.73 h -57.72 a 0.55,0.55 0 0 0 -0.52,0.52 c 0,0.94 -1,1 -1.31,1 h -16.29 c -0.31,0 -1.32,-0.07 -1.32,-1 a 0.48,0.48 0 0 0 -0.15,-0.36 0.52,0.52 0 0 0 -0.36,-0.16 h -57.84 c -1.52,0 -2.64,-0.49 -2.72,-1.2 a 0.54,0.54 0 0 0 -0.26,-0.39 z m 122.13,24.66 h -135.5 a 5.38,5.38 0 0 1 -3.23,-2 v -2.59 a 4.43,4.43 0 0 0 3.23,1.06 h 57.38 a 2.16,2.16 0 0 0 2.29,1.52 h 16.33 a 2.15,2.15 0 0 0 2.28,-1.52 h 57.22 a 4.44,4.44 0 0 0 3.23,-1 v 2.55 a 5.12,5.12 0 0 1 -3.23,1.98 z"
     id="path1079" />
  <polygon
     points="309.36,187.12 229.45,187.12 223.39,195.16 315.54,195.16 "
     id="polygon1081"
     transform="translate(-82.271468,-58.306415)" />
  <path
     class="cls-3"
     d="m 174.10853,79.693585 c 1.07,-3.33 1.93,-6.48 3.11,-9.25 0.31,-0.68 0.57,-1.38 0.91,-2 l 1,-1.86 c 0.32,-0.61 0.75,-1.13 1.11,-1.69 a 15.39,15.39 0 0 1 1.12,-1.55 c 0.83,-0.93 1.53,-1.9 2.35,-2.65 l 2.27,-2.16 c 1.54,-1.18 2.78,-2.28 3.91,-3 l 3.43,-2.27 -3.46,2.23 c -1.14,0.72 -2.4,1.8 -4,3 l -2.3,2.14 c -0.83,0.75 -1.55,1.71 -2.4,2.63 a 16.76,16.76 0 0 0 -1.14,1.55 c -0.37,0.56 -0.81,1.08 -1.14,1.69 l -1.05,1.86 c -0.35,0.64 -0.62,1.33 -0.94,2 -1.23,2.78 -2.14,5.93 -3.24,9.23 a 30.22,30.22 0 0 1 -3.32,7.51 c 0.18,0.06 0.33,0.16 0.5,0.22 a 31.71,31.71 0 0 0 3.28,-7.63 z"
     id="path1083" />
  <path
     class="cls-3"
     d="m 150.89853,106.24359 c 0.14,0.41 0.05,0.11 0.08,0.21 v 0 c 0,0 0,0 0,0 a 0.38,0.38 0 0 1 -0.07,0.28 c 0,0.1 -0.13,0.2 -0.15,0.22 -0.02,0.02 0.11,0 0.42,-0.1 l -0.1,-0.25 z"
     id="path1085" />
  <path
     class="cls-3"
     d="m 184.55853,97.193585 c 0.63,0.35 0.27,0.24 0.92,0.57 0.1,-0.23 0.2,-0.46 0.28,-0.7 0.08,-0.24 0.16,-0.48 0.24,-0.72 -0.59,-0.3 -0.17,-0.14 -0.74,-0.45 -1.08,-0.58 -1.3,-0.7 -2.37,-1.3 -0.24,0.4 -0.5,0.8 -0.75,1.2 1.07,0.64 1.31,0.79 2.42,1.4 z"
     id="path1087" />
  <path
     class="cls-3"
     d="m 214.54853,93.983585 c -3.93,3.84 -8.91,6.630005 -14.24,6.620005 a 20.28,20.28 0 0 1 -9.52,-2.000005 l -0.52,1.450005 a 13.24,13.24 0 0 0 1.73,0.68 24,24 0 0 0 8.32,1.58 19.24,19.24 0 0 0 8.42,-1.94 c 0.64,-0.34 1.3,-0.660005 1.92,-1.000005 l 1.83,-1.19 1.75,-1.34 c 0.55,-0.46 1.05,-0.93 1.59,-1.4 a 34.31,34.31 0 0 0 4,-4.37 c -0.5,-0.43 -1,-0.85 -1.51,-1.26 a 37.08,37.08 0 0 1 -3.77,4.17 z"
     id="path1089" />
  <path
     class="cls-3"
     d="m 167.53853,92.173585 a 13.85,13.85 0 0 0 1,-1.28 c 0.27,-0.38 0.81,-1 0.81,-1 l -0.55,-0.26 c 0,0 -0.47,0.6 -0.75,1 a 11,11 0 0 1 -1,1.19 l -2.06,2.23 a 15.84,15.84 0 0 1 -5.18,3.25 15.69,15.69 0 0 1 -7.89,0.73 l -1.66,-0.39 a 4.93,4.93 0 0 1 -2.6,-1.62 2.76,2.76 0 0 1 -0.13,-2.87 7.07,7.07 0 0 1 2.21,-2.42 16.91,16.91 0 0 1 6.53,-2.55 29.91,29.91 0 0 1 3.61,-0.46 18.66,18.66 0 0 1 3.66,0 22.59,22.59 0 0 1 5.59,1.36 l 0.54,0.21 1.05,0.41 a 55.65,55.65 0 0 1 6.24,3.19 c 0.25,-0.38 0.48,-0.78 0.71,-1.18 a 54.47,54.47 0 0 0 -6.46,-3.18 c -0.28,-0.12 -0.58,-0.22 -0.86,-0.33 l -0.53,-0.2 a 24.31,24.31 0 0 0 -6.17,-1.45 19.83,19.83 0 0 0 -3.86,0.06 34.64,34.64 0 0 0 -3.74,0.52 18,18 0 0 0 -6.89,2.8 8.06,8.06 0 0 0 -2.43,2.76 3.67,3.67 0 0 0 0.25,3.79 5.74,5.74 0 0 0 3.14,1.93 l 1.66,0.38 c 0.55,0.11 1.16,0.11 1.73,0.17 a 15.51,15.51 0 0 0 6.6,-1 16.34,16.34 0 0 0 5.38,-3.47 c 0.69,-0.8 1.37,-1.57 2.05,-2.32 z"
     id="path1091" />
  <path
     class="cls-3"
     d="m 179.26853,112.14359 a 18.3,18.3 0 0 0 6.51,-5.88 29.76,29.76 0 0 0 3.4,-6.730005 c 0.13,-0.34 0.26,-0.67 0.38,-1 0.05,-0.16 0.09,-0.3 0.14,-0.45 1.79,-5.21 2.89,-10.55 4.71,-15.57 a 31.62,31.62 0 0 1 3.61,-7.27 18.15,18.15 0 0 1 5.77,-5.4 21.42,21.42 0 0 1 7.62,-2.62 15.36,15.36 0 0 1 2,-0.25 c 0.67,0 1.45,-0.17 2,-0.16 a 13.38,13.38 0 0 1 3.87,0.67 7,7 0 0 1 5,5.08 3.78,3.78 0 0 1 0.19,1 8.31,8.31 0 0 1 0.09,0.9 11.85,11.85 0 0 1 -0.08,2 18.39,18.39 0 0 1 -0.93,3.93 35.37,35.37 0 0 1 -5.27,9.44 c 0.5,0.41 1,0.82 1.51,1.26 0.58,-0.74 1.13,-1.48 1.66,-2.24 a 35,35 0 0 0 4.09,-7.76 19.92,19.92 0 0 0 1.09,-4.38 14.52,14.52 0 0 0 0.12,-2.3 8.78,8.78 0 0 0 -0.11,-1.23 5.77,5.77 0 0 0 -0.22,-1.14 8.49,8.49 0 0 0 -2.31,-4.22 10.66,10.66 0 0 0 -4.08,-2.48 15.44,15.44 0 0 0 -4.56,-0.84 c -0.88,0 -1.5,0.09 -2.28,0.13 a 20.29,20.29 0 0 0 -2.2,0.25 24,24 0 0 0 -8.52,2.83 20.72,20.72 0 0 0 -6.66,6.07 33.84,33.84 0 0 0 -4,7.83 c -1.93,5.17 -3.09,10.41 -4.81,15.26 l -0.24,0.71 c -0.09,0.24 -0.19,0.47 -0.28,0.71 a 28.08,28.08 0 0 1 -3.22,6.270005 15.2,15.2 0 0 1 -5.47,4.82 18.58,18.58 0 0 1 -7,1.87 l -1.81,0.12 -2,-0.05 h -1 -0.41 -0.47 c -0.63,0 -1.26,-0.12 -1.88,-0.19 a 42.21,42.21 0 0 1 -7.21,-1.41 15.5,15.5 0 0 1 -3.13,-1.26 3.79,3.79 0 0 1 -0.36,-0.22 c -1,-0.84 -1,-1.17 -0.41,-1.27 0.13,0 0.26,0 0.4,0 a 20.58,20.58 0 0 1 2.18,0.1 c 1.11,0.12 2.39,0.28 3.63,0.3 l 1.84,0.07 1.86,-0.09 a 22.52,22.52 0 0 0 13.41,-5.1 28.42,28.42 0 0 0 5.83,-6.780005 c 0.26,-0.4 0.51,-0.8 0.76,-1.21 0.47,-0.79 0.91,-1.57 1.33,-2.34 1.88,-3.59 3.31,-7.06 4.71,-10.25 2.7,-6.39 5.35,-11.68 8.39,-15.17 a 20.12,20.12 0 0 1 8.38,-6 c 0.56,-0.19 1,-0.39 1.46,-0.51 l 0.59,-0.15 0.24,2.33 7.67,-5.55 -8.64,-3.86 0.25,2.42 -1.24,0.32 c -0.5,0.12 -1.19,0.41 -1.89,0.67 -0.36,0.14 -0.76,0.26 -1.14,0.44 l -1.16,0.59 a 18.06,18.06 0 0 0 -2.56,1.52 25.22,25.22 0 0 0 -5.36,4.93 c -3.51,4.15 -6.24,9.94 -8.89,16.4 -1.35,3.23 -2.71,6.64 -4.44,10 -0.39,0.75 -0.8,1.49 -1.23,2.23 -0.23,0.4 -0.47,0.79 -0.71,1.18 a 24.79,24.79 0 0 1 -4.87,5.8 17.12,17.12 0 0 1 -5.06,3.000005 l -0.71,0.29 -0.74,0.2 c -0.49,0.14 -1,0.29 -1.49,0.41 a 24.88,24.88 0 0 1 -3.15,0.43 l -1.63,0.1 h -1.66 c -1.12,0 -2.2,-0.12 -3.47,-0.24 a 20.61,20.61 0 0 0 -4,0 4.91,4.91 0 0 0 -2.65,1 3.83,3.83 0 0 0 -0.72,0.93 3.88,3.88 0 0 0 -0.27,1.18 4.07,4.07 0 0 0 0.05,0.49 v 0.25 a 1.52,1.52 0 0 0 0.12,0.45 l 0.18,0.42 a 3.58,3.58 0 0 0 0.22,0.47 c 0.14,0.22 0.28,0.43 0.44,0.64 a 5,5 0 0 0 0.91,1 6.49,6.49 0 0 0 0.92,0.71 8,8 0 0 0 0.95,0.57 18.83,18.83 0 0 0 3.84,1.5 44.75,44.75 0 0 0 7.83,1.44 c 0.67,0.07 1.33,0.12 2,0.17 h 0.5 0.56 1 2 l 2.13,-0.15 a 22.12,22.12 0 0 0 8.26,-2.38 z"
     id="path1093" />
  <line
     class="cls-4"
     x1="136.31853"
     y1="116.68359"
     x2="136.31853"
     y2="49.953587"
     id="line1095" />
  <line
     class="cls-4"
     x1="239.36855"
     y1="117.55359"
     x2="239.36855"
     y2="50.833584"
     id="line1097" />
</svg>
